<mxfile host="Electron" modified="2024-03-04T21:50:18.149Z" agent="Mozilla/5.0 (Windows NT 10.0; Win64; x64) AppleWebKit/537.36 (KHTML, like Gecko) draw.io/23.1.5 Chrome/120.0.6099.109 Electron/28.1.0 Safari/537.36" etag="3HbDODBJq-8l_BXR2XDz" version="23.1.5" type="device">
  <diagram name="Page-1" id="2bIWUJAcELmk-l_OOoFt">
    <mxGraphModel dx="1970" dy="524" grid="1" gridSize="10" guides="1" tooltips="1" connect="1" arrows="1" fold="1" page="1" pageScale="1" pageWidth="850" pageHeight="1100" math="0" shadow="0">
      <root>
        <mxCell id="0" />
        <mxCell id="1" parent="0" />
        <mxCell id="9lqc_6KsXYRmT8U5DYnx-1" value="DVD 1" style="ellipse;whiteSpace=wrap;html=1;" parent="1" vertex="1">
          <mxGeometry x="-120" y="580" width="120" height="40" as="geometry" />
        </mxCell>
        <mxCell id="9lqc_6KsXYRmT8U5DYnx-2" value="Book 1" style="ellipse;whiteSpace=wrap;html=1;" parent="1" vertex="1">
          <mxGeometry x="-260" y="580" width="120" height="40" as="geometry" />
        </mxCell>
        <mxCell id="9lqc_6KsXYRmT8U5DYnx-3" value="Stationery 1" style="ellipse;whiteSpace=wrap;html=1;" parent="1" vertex="1">
          <mxGeometry x="20" y="580" width="120" height="40" as="geometry" />
        </mxCell>
        <mxCell id="9lqc_6KsXYRmT8U5DYnx-4" value="Laptop1" style="ellipse;whiteSpace=wrap;html=1;" parent="1" vertex="1">
          <mxGeometry x="160" y="580" width="120" height="40" as="geometry" />
        </mxCell>
        <mxCell id="9lqc_6KsXYRmT8U5DYnx-5" value="Tablet1" style="ellipse;whiteSpace=wrap;html=1;" parent="1" vertex="1">
          <mxGeometry x="290" y="580" width="120" height="40" as="geometry" />
        </mxCell>
        <mxCell id="9lqc_6KsXYRmT8U5DYnx-6" value="NewsLetter 1" style="ellipse;whiteSpace=wrap;html=1;" parent="1" vertex="1">
          <mxGeometry x="431" y="580" width="120" height="40" as="geometry" />
        </mxCell>
        <mxCell id="9lqc_6KsXYRmT8U5DYnx-7" value="LIbrary 1" style="ellipse;whiteSpace=wrap;html=1;" parent="1" vertex="1">
          <mxGeometry x="300" y="360" width="120" height="40" as="geometry" />
        </mxCell>
        <mxCell id="9lqc_6KsXYRmT8U5DYnx-8" value="University 1" style="ellipse;whiteSpace=wrap;html=1;" parent="1" vertex="1">
          <mxGeometry x="300" y="200" width="120" height="40" as="geometry" />
        </mxCell>
        <mxCell id="9lqc_6KsXYRmT8U5DYnx-9" value="Video 1" style="ellipse;whiteSpace=wrap;html=1;" parent="1" vertex="1">
          <mxGeometry x="565" y="580" width="120" height="40" as="geometry" />
        </mxCell>
        <mxCell id="9lqc_6KsXYRmT8U5DYnx-10" value="" style="endArrow=none;html=1;rounded=0;entryX=0.5;entryY=1;entryDx=0;entryDy=0;" parent="1" target="9lqc_6KsXYRmT8U5DYnx-8" edge="1">
          <mxGeometry width="50" height="50" relative="1" as="geometry">
            <mxPoint x="360" y="360" as="sourcePoint" />
            <mxPoint x="450" y="360" as="targetPoint" />
          </mxGeometry>
        </mxCell>
        <mxCell id="9lqc_6KsXYRmT8U5DYnx-11" value="" style="endArrow=none;html=1;rounded=0;entryX=0.5;entryY=0;entryDx=0;entryDy=0;" parent="1" target="9lqc_6KsXYRmT8U5DYnx-2" edge="1">
          <mxGeometry width="50" height="50" relative="1" as="geometry">
            <mxPoint x="360" y="400" as="sourcePoint" />
            <mxPoint x="-190" y="570" as="targetPoint" />
          </mxGeometry>
        </mxCell>
        <mxCell id="9lqc_6KsXYRmT8U5DYnx-12" value="" style="endArrow=none;html=1;rounded=0;exitX=0.5;exitY=1;exitDx=0;exitDy=0;entryX=0.5;entryY=0;entryDx=0;entryDy=0;" parent="1" source="9lqc_6KsXYRmT8U5DYnx-7" target="9lqc_6KsXYRmT8U5DYnx-1" edge="1">
          <mxGeometry width="50" height="50" relative="1" as="geometry">
            <mxPoint x="450" y="410" as="sourcePoint" />
            <mxPoint x="500" y="360" as="targetPoint" />
          </mxGeometry>
        </mxCell>
        <mxCell id="9lqc_6KsXYRmT8U5DYnx-13" value="" style="endArrow=none;html=1;rounded=0;entryX=0.5;entryY=0;entryDx=0;entryDy=0;" parent="1" target="9lqc_6KsXYRmT8U5DYnx-3" edge="1">
          <mxGeometry width="50" height="50" relative="1" as="geometry">
            <mxPoint x="360" y="400" as="sourcePoint" />
            <mxPoint x="610" y="360" as="targetPoint" />
          </mxGeometry>
        </mxCell>
        <mxCell id="9lqc_6KsXYRmT8U5DYnx-14" value="" style="endArrow=none;html=1;rounded=0;exitX=0.5;exitY=1;exitDx=0;exitDy=0;entryX=0.5;entryY=0;entryDx=0;entryDy=0;" parent="1" source="9lqc_6KsXYRmT8U5DYnx-7" target="9lqc_6KsXYRmT8U5DYnx-4" edge="1">
          <mxGeometry width="50" height="50" relative="1" as="geometry">
            <mxPoint x="500" y="440" as="sourcePoint" />
            <mxPoint x="550" y="390" as="targetPoint" />
          </mxGeometry>
        </mxCell>
        <mxCell id="9lqc_6KsXYRmT8U5DYnx-15" value="" style="endArrow=none;html=1;rounded=0;entryX=0.5;entryY=0;entryDx=0;entryDy=0;" parent="1" target="9lqc_6KsXYRmT8U5DYnx-5" edge="1">
          <mxGeometry width="50" height="50" relative="1" as="geometry">
            <mxPoint x="360" y="400" as="sourcePoint" />
            <mxPoint x="570" y="450" as="targetPoint" />
          </mxGeometry>
        </mxCell>
        <mxCell id="9lqc_6KsXYRmT8U5DYnx-16" value="" style="endArrow=none;html=1;rounded=0;entryX=0.383;entryY=0;entryDx=0;entryDy=0;entryPerimeter=0;" parent="1" target="9lqc_6KsXYRmT8U5DYnx-6" edge="1">
          <mxGeometry width="50" height="50" relative="1" as="geometry">
            <mxPoint x="360" y="400" as="sourcePoint" />
            <mxPoint x="480" y="460" as="targetPoint" />
          </mxGeometry>
        </mxCell>
        <mxCell id="9lqc_6KsXYRmT8U5DYnx-17" value="" style="endArrow=none;html=1;rounded=0;exitX=0.5;exitY=1;exitDx=0;exitDy=0;entryX=0.417;entryY=0;entryDx=0;entryDy=0;entryPerimeter=0;" parent="1" source="9lqc_6KsXYRmT8U5DYnx-7" target="9lqc_6KsXYRmT8U5DYnx-9" edge="1">
          <mxGeometry width="50" height="50" relative="1" as="geometry">
            <mxPoint x="480" y="520" as="sourcePoint" />
            <mxPoint x="530" y="470" as="targetPoint" />
          </mxGeometry>
        </mxCell>
        <mxCell id="9lqc_6KsXYRmT8U5DYnx-18" value="LIbrary 2" style="ellipse;whiteSpace=wrap;html=1;" parent="1" vertex="1">
          <mxGeometry x="540" y="360" width="120" height="40" as="geometry" />
        </mxCell>
        <mxCell id="9lqc_6KsXYRmT8U5DYnx-19" value="" style="endArrow=none;html=1;rounded=0;exitX=0.342;exitY=-0.025;exitDx=0;exitDy=0;exitPerimeter=0;entryX=0.5;entryY=1;entryDx=0;entryDy=0;" parent="1" source="9lqc_6KsXYRmT8U5DYnx-18" target="9lqc_6KsXYRmT8U5DYnx-8" edge="1">
          <mxGeometry width="50" height="50" relative="1" as="geometry">
            <mxPoint x="230" y="360" as="sourcePoint" />
            <mxPoint x="310" y="230" as="targetPoint" />
          </mxGeometry>
        </mxCell>
        <mxCell id="9lqc_6KsXYRmT8U5DYnx-21" value="DIgitalBook 1" style="ellipse;whiteSpace=wrap;html=1;" parent="1" vertex="1">
          <mxGeometry x="702" y="580" width="120" height="40" as="geometry" />
        </mxCell>
        <mxCell id="9lqc_6KsXYRmT8U5DYnx-22" value="AudiBook 1" style="ellipse;whiteSpace=wrap;html=1;" parent="1" vertex="1">
          <mxGeometry x="836" y="580" width="120" height="40" as="geometry" />
        </mxCell>
        <mxCell id="9lqc_6KsXYRmT8U5DYnx-23" value="" style="endArrow=none;html=1;rounded=0;exitX=0.5;exitY=1;exitDx=0;exitDy=0;entryX=0.5;entryY=0;entryDx=0;entryDy=0;" parent="1" source="9lqc_6KsXYRmT8U5DYnx-7" target="9lqc_6KsXYRmT8U5DYnx-21" edge="1">
          <mxGeometry width="50" height="50" relative="1" as="geometry">
            <mxPoint x="370" y="410" as="sourcePoint" />
            <mxPoint x="640" y="590" as="targetPoint" />
          </mxGeometry>
        </mxCell>
        <mxCell id="9lqc_6KsXYRmT8U5DYnx-24" value="" style="endArrow=none;html=1;rounded=0;exitX=0.567;exitY=1.05;exitDx=0;exitDy=0;entryX=0.575;entryY=0.025;entryDx=0;entryDy=0;entryPerimeter=0;exitPerimeter=0;" parent="1" source="9lqc_6KsXYRmT8U5DYnx-7" target="9lqc_6KsXYRmT8U5DYnx-22" edge="1">
          <mxGeometry width="50" height="50" relative="1" as="geometry">
            <mxPoint x="370" y="410" as="sourcePoint" />
            <mxPoint x="780" y="590" as="targetPoint" />
          </mxGeometry>
        </mxCell>
      </root>
    </mxGraphModel>
  </diagram>
</mxfile>
